<svg width="517" height="476" viewBox="0 0 517 476" fill="none" xmlns="http://www.w3.org/2000/svg">
<path d="M269 440.05C382.218 440.05 474 348.268 474 235.05C474 121.831 382.218 30.0498 269 30.0498C155.782 30.0498 64 121.831 64 235.05C64 348.268 155.782 440.05 269 440.05Z" fill="#F4F6F4" fill-opacity="0.1"/>
<path d="M268.97 122C302.66 122 329.97 94.6894 329.97 61C329.97 27.3106 302.66 0 268.97 0C235.281 0 207.97 27.3106 207.97 61C207.97 94.6894 235.281 122 268.97 122Z" fill="white"/>
<path d="M450 296.05C483.689 296.05 511 268.739 511 235.05C511 201.36 483.689 174.05 450 174.05C416.311 174.05 389 201.36 389 235.05C389 268.739 416.311 296.05 450 296.05Z" fill="white"/>
<path d="M269 475.05C302.689 475.05 330 447.739 330 414.05C330 380.36 302.689 353.05 269 353.05C235.311 353.05 208 380.36 208 414.05C208 447.739 235.311 475.05 269 475.05Z" fill="white"/>
<path d="M66 296.05C99.6894 296.05 127 268.739 127 235.05C127 201.36 99.6894 174.05 66 174.05C32.3106 174.05 5 201.36 5 235.05C5 268.739 32.3106 296.05 66 296.05Z" fill="white"/>
<path d="M342 52.0498C342 52.0498 423.73 57.2098 447.93 139.65" stroke="#B84B86" stroke-width="4" stroke-miterlimit="10"/>
<path d="M452.057 158.546L440.616 136.971L452.936 134.143L452.057 158.546Z" fill="#B84B86" stroke="#B84B86"/>
<path d="M457.38 315.05C457.38 315.05 452.7 398.49 362.94 420.32" stroke="#B84B86" stroke-width="4" stroke-miterlimit="10"/>
<path d="M368.247 425.56L343.898 423.694L365.919 413.141L368.247 425.56Z" fill="#B84B86" stroke="#B84B86"/>
<path d="M185 434.05C185 434.05 103.96 411.42 90.7998 336.24" stroke="#B84B86" stroke-width="4" stroke-miterlimit="10"/>
<path d="M97.7134 339.854L85.1206 341.05L89.1821 316.97L97.7134 339.854Z" fill="#B84B86" stroke="#B84B86"/>
<path d="M156 220.05C156 220.05 234.73 240.59 253.65 322.05" stroke="#B84B86" stroke-width="4" stroke-miterlimit="10"/>
<path d="M256.678 341.143L246.516 318.944L258.98 316.841L256.678 341.143Z" fill="#B84B86" stroke="#B84B86"/>
<path d="M236.993 48V36.848H240.193C242.028 36.848 243.452 37.344 244.465 38.336C245.479 39.3173 245.985 40.7093 245.985 42.512C245.985 44.2827 245.484 45.6427 244.481 46.592C243.489 47.5307 242.055 48 240.177 48H236.993ZM238.849 46.304H240.001C240.865 46.304 241.607 46.1867 242.225 45.952C242.844 45.7067 243.313 45.3013 243.633 44.736C243.953 44.1707 244.113 43.408 244.113 42.448C244.113 41.488 243.953 40.7253 243.633 40.16C243.324 39.584 242.871 39.1733 242.273 38.928C241.687 38.672 240.983 38.544 240.161 38.544H238.849V46.304ZM247.214 48V40.112H248.99V48H247.214ZM247.134 38.816V36.848H249.07V38.816H247.134ZM255.666 48L255.538 46.672V43.024C255.538 42.512 255.383 42.128 255.074 41.872C254.765 41.6053 254.333 41.472 253.778 41.472C253.351 41.472 252.93 41.5573 252.514 41.728C252.109 41.888 251.735 42.1387 251.394 42.48L250.402 41.312C250.914 40.832 251.458 40.4907 252.034 40.288C252.61 40.0747 253.239 39.968 253.922 39.968C254.989 39.968 255.815 40.24 256.402 40.784C256.999 41.3173 257.298 42.064 257.298 43.024V48H255.666ZM253.218 48.144C252.631 48.144 252.109 48.0373 251.65 47.824C251.202 47.6107 250.85 47.312 250.594 46.928C250.349 46.544 250.226 46.096 250.226 45.584C250.226 45.1467 250.317 44.768 250.498 44.448C250.69 44.128 250.935 43.8773 251.234 43.696C251.49 43.536 251.789 43.424 252.13 43.36C252.471 43.2853 252.829 43.248 253.202 43.248H255.682V44.576H253.458C253.266 44.576 253.074 44.5973 252.882 44.64C252.69 44.672 252.519 44.736 252.37 44.832C252.263 44.9173 252.173 45.024 252.098 45.152C252.034 45.28 252.002 45.4293 252.002 45.6C252.002 45.9413 252.13 46.2133 252.386 46.416C252.653 46.608 253.005 46.704 253.442 46.704C253.826 46.704 254.173 46.6187 254.482 46.448C254.802 46.2773 255.058 46.0427 255.25 45.744C255.442 45.4453 255.538 45.1093 255.538 44.736L256.082 45.616C255.954 46.1707 255.751 46.64 255.474 47.024C255.197 47.3973 254.866 47.68 254.482 47.872C254.098 48.0533 253.677 48.144 253.218 48.144ZM262.081 51.424C260.919 51.424 260.001 51.2107 259.329 50.784C258.657 50.368 258.321 49.7973 258.321 49.072C258.321 49.008 258.321 48.9333 258.321 48.848C258.332 48.7627 258.348 48.6773 258.369 48.592L260.513 47.2L260.993 47.664L259.953 48.96C259.943 48.992 259.937 49.0187 259.937 49.04C259.937 49.072 259.937 49.104 259.937 49.136C259.937 49.4667 260.135 49.7173 260.529 49.888C260.935 50.0693 261.452 50.16 262.081 50.16C262.615 50.16 263.041 50.0853 263.361 49.936C263.681 49.7973 263.841 49.584 263.841 49.296C263.841 49.136 263.793 49.0027 263.697 48.896C263.601 48.8 263.457 48.72 263.265 48.656C263.073 48.592 262.833 48.5333 262.545 48.48C262.268 48.4373 261.937 48.3947 261.553 48.352C261.073 48.2773 260.599 48.1707 260.129 48.032C259.671 47.8933 259.287 47.6853 258.977 47.408C258.679 47.1307 258.529 46.7627 258.529 46.304C258.529 45.8987 258.668 45.5307 258.945 45.2C259.223 44.8587 259.591 44.5813 260.049 44.368L260.961 45.072C260.663 45.136 260.439 45.248 260.289 45.408C260.14 45.5573 260.065 45.7387 260.065 45.952C260.065 46.1333 260.135 46.2827 260.273 46.4C260.412 46.5067 260.609 46.592 260.865 46.656C261.132 46.7093 261.447 46.7627 261.809 46.816C262.353 46.88 262.855 46.9547 263.313 47.04C263.772 47.1253 264.172 47.248 264.513 47.408C264.855 47.5573 265.116 47.7653 265.297 48.032C265.489 48.2987 265.585 48.6453 265.585 49.072C265.585 49.8293 265.276 50.4107 264.657 50.816C264.049 51.2213 263.191 51.424 262.081 51.424ZM261.905 45.712C261.265 45.712 260.7 45.5893 260.209 45.344C259.719 45.0987 259.335 44.7627 259.057 44.336C258.791 43.8987 258.657 43.408 258.657 42.864C258.657 42.2773 258.801 41.7707 259.089 41.344C259.377 40.9067 259.761 40.5707 260.241 40.336C260.732 40.0907 261.265 39.968 261.841 39.968C262.417 39.968 262.945 40.0907 263.425 40.336C263.905 40.5707 264.289 40.912 264.577 41.36C264.876 41.7973 265.025 42.32 265.025 42.928C265.025 43.4827 264.892 43.9733 264.625 44.4C264.369 44.816 264.007 45.1413 263.537 45.376C263.068 45.6 262.524 45.712 261.905 45.712ZM261.873 44.288C262.332 44.288 262.679 44.1493 262.913 43.872C263.148 43.584 263.265 43.2427 263.265 42.848C263.265 42.4213 263.137 42.08 262.881 41.824C262.625 41.5573 262.289 41.424 261.873 41.424C261.436 41.424 261.084 41.5573 260.817 41.824C260.561 42.08 260.433 42.416 260.433 42.832C260.433 43.2373 260.556 43.584 260.801 43.872C261.047 44.1493 261.404 44.288 261.873 44.288ZM264.513 41.712L263.217 40.88L264.993 39.44L265.905 40.544L264.513 41.712ZM266.634 48V40.112H268.41V41.856L268.09 41.936C268.228 41.4773 268.431 41.104 268.698 40.816C268.964 40.528 269.274 40.3147 269.626 40.176C269.988 40.0373 270.367 39.968 270.762 39.968C271.647 39.968 272.335 40.224 272.826 40.736C273.327 41.2373 273.578 41.9573 273.578 42.896V48H271.802V43.552C271.802 42.848 271.674 42.3307 271.418 42C271.162 41.6693 270.767 41.504 270.234 41.504C269.839 41.504 269.503 41.6 269.226 41.792C268.959 41.9733 268.756 42.2613 268.618 42.656C268.479 43.0507 268.41 43.552 268.41 44.16V48H266.634ZM278.643 48.144C277.897 48.144 277.225 47.968 276.627 47.616C276.03 47.264 275.561 46.7787 275.219 46.16C274.889 45.5413 274.723 44.8373 274.723 44.048C274.723 43.2587 274.889 42.5547 275.219 41.936C275.561 41.3173 276.025 40.8373 276.611 40.496C277.209 40.144 277.886 39.968 278.643 39.968C279.411 39.968 280.083 40.144 280.659 40.496C281.246 40.8373 281.71 41.3173 282.051 41.936C282.393 42.5547 282.563 43.2587 282.563 44.048C282.563 44.8373 282.393 45.5413 282.051 46.16C281.721 46.7787 281.257 47.264 280.659 47.616C280.073 47.968 279.401 48.144 278.643 48.144ZM278.659 46.576C279.097 46.576 279.475 46.4747 279.795 46.272C280.115 46.0693 280.361 45.776 280.531 45.392C280.702 45.008 280.787 44.56 280.787 44.048C280.787 43.5253 280.702 43.0773 280.531 42.704C280.361 42.32 280.115 42.0267 279.795 41.824C279.475 41.6213 279.097 41.52 278.659 41.52C278.201 41.52 277.811 41.6267 277.491 41.84C277.171 42.0427 276.926 42.3307 276.755 42.704C276.585 43.0773 276.499 43.5253 276.499 44.048C276.499 44.56 276.585 45.008 276.755 45.392C276.926 45.776 277.171 46.0693 277.491 46.272C277.811 46.4747 278.201 46.576 278.659 46.576ZM286.487 48.144C285.921 48.144 285.42 48.064 284.983 47.904C284.545 47.7333 284.177 47.52 283.879 47.264C283.58 47.008 283.335 46.752 283.143 46.496L284.359 45.44C284.561 45.7707 284.839 46.064 285.191 46.32C285.553 46.576 285.991 46.704 286.503 46.704C286.929 46.704 287.265 46.6133 287.511 46.432C287.767 46.2507 287.895 46.0267 287.895 45.76C287.895 45.5253 287.815 45.344 287.655 45.216C287.495 45.0773 287.287 44.96 287.031 44.864C286.775 44.768 286.492 44.6827 286.183 44.608C285.884 44.5333 285.58 44.4427 285.271 44.336C284.961 44.2187 284.673 44.0747 284.407 43.904C284.151 43.7333 283.943 43.5147 283.783 43.248C283.623 42.9813 283.543 42.6507 283.543 42.256C283.543 41.5627 283.809 41.008 284.343 40.592C284.876 40.176 285.575 39.968 286.439 39.968C287.057 39.968 287.623 40.0907 288.135 40.336C288.647 40.5813 289.047 40.9493 289.335 41.44L288.231 42.288C288.017 41.968 287.751 41.728 287.431 41.568C287.111 41.408 286.764 41.328 286.391 41.328C286.049 41.328 285.761 41.3973 285.527 41.536C285.303 41.6747 285.191 41.856 285.191 42.08C285.191 42.2507 285.244 42.3893 285.351 42.496C285.457 42.6027 285.623 42.6987 285.847 42.784C286.071 42.8693 286.353 42.9547 286.695 43.04C287.015 43.1147 287.345 43.2053 287.687 43.312C288.028 43.4187 288.343 43.5627 288.631 43.744C288.929 43.9147 289.169 44.1493 289.351 44.448C289.543 44.736 289.639 45.1093 289.639 45.568C289.639 46.08 289.505 46.5333 289.239 46.928C288.983 47.312 288.615 47.6107 288.135 47.824C287.665 48.0373 287.116 48.144 286.487 48.144ZM294.306 48.144C293.645 48.144 293.069 48.0373 292.578 47.824C292.098 47.6107 291.703 47.312 291.394 46.928C291.085 46.544 290.855 46.112 290.706 45.632C290.557 45.1413 290.482 44.6347 290.482 44.112C290.482 43.5893 290.551 43.0827 290.69 42.592C290.839 42.0907 291.063 41.6427 291.362 41.248C291.661 40.8533 292.045 40.544 292.514 40.32C292.983 40.0853 293.538 39.968 294.178 39.968C294.786 39.968 295.314 40.0747 295.762 40.288C296.221 40.4907 296.599 40.7787 296.898 41.152C297.197 41.5147 297.415 41.9307 297.554 42.4C297.703 42.8693 297.778 43.3707 297.778 43.904C297.778 43.9787 297.773 44.0853 297.762 44.224C297.762 44.3627 297.751 44.5013 297.73 44.64H292.258C292.301 45.2693 292.514 45.7493 292.898 46.08C293.282 46.4107 293.773 46.576 294.37 46.576C294.807 46.576 295.207 46.5067 295.57 46.368C295.933 46.2293 296.263 46.0107 296.562 45.712L297.538 46.896C297.207 47.1947 296.877 47.4347 296.546 47.616C296.215 47.7973 295.869 47.9307 295.506 48.016C295.154 48.1013 294.754 48.144 294.306 48.144ZM296.034 43.744C296.055 43.6587 296.066 43.5733 296.066 43.488C296.077 43.4027 296.082 43.3173 296.082 43.232C296.082 42.9973 296.039 42.7733 295.954 42.56C295.879 42.3467 295.762 42.16 295.602 42C295.442 41.8293 295.245 41.696 295.01 41.6C294.775 41.4933 294.509 41.44 294.21 41.44C293.794 41.44 293.442 41.5307 293.154 41.712C292.877 41.8933 292.658 42.128 292.498 42.416C292.349 42.6933 292.258 42.9973 292.226 43.328H296.61L296.034 43.744ZM246.23 65.144C245.611 65.144 245.062 65.0373 244.582 64.824C244.112 64.6 243.718 64.296 243.398 63.912C243.088 63.5173 242.854 63.0747 242.694 62.584C242.534 62.0933 242.454 61.5813 242.454 61.048C242.454 60.5147 242.534 60.0027 242.694 59.512C242.854 59.0213 243.088 58.584 243.398 58.2C243.718 57.816 244.112 57.5173 244.582 57.304C245.062 57.08 245.611 56.968 246.23 56.968C247.008 56.968 247.686 57.1547 248.262 57.528C248.848 57.9013 249.28 58.4773 249.558 59.256L247.99 59.864C247.862 59.4587 247.654 59.1333 247.366 58.888C247.078 58.632 246.699 58.504 246.23 58.504C245.76 58.504 245.376 58.6267 245.078 58.872C244.79 59.1173 244.576 59.432 244.438 59.816C244.299 60.2 244.23 60.6107 244.23 61.048C244.23 61.4853 244.299 61.9013 244.438 62.296C244.576 62.68 244.79 62.9947 245.078 63.24C245.376 63.4747 245.76 63.592 246.23 63.592C246.699 63.592 247.078 63.4693 247.366 63.224C247.654 62.9787 247.862 62.6533 247.99 62.248L249.558 62.856C249.28 63.624 248.848 64.2 248.262 64.584C247.686 64.9573 247.008 65.144 246.23 65.144ZM253.421 65.144C252.803 65.144 252.28 65.0213 251.853 64.776C251.437 64.5307 251.123 64.1787 250.909 63.72C250.696 63.2613 250.589 62.7067 250.589 62.056V57.112H252.365V61.576C252.365 61.992 252.413 62.3547 252.509 62.664C252.616 62.9627 252.781 63.192 253.005 63.352C253.24 63.512 253.555 63.592 253.949 63.592C254.408 63.592 254.765 63.4747 255.021 63.24C255.288 62.9947 255.475 62.6427 255.581 62.184C255.699 61.7147 255.757 61.1547 255.757 60.504V57.112H257.533V65H255.757V63.304L256.061 63.416C255.816 64.0133 255.459 64.4507 254.989 64.728C254.531 65.0053 254.008 65.144 253.421 65.144ZM259.143 65V57.112H260.935V59.24L260.599 59.288C260.652 58.8293 260.807 58.4293 261.063 58.088C261.319 57.736 261.628 57.464 261.991 57.272C262.364 57.0693 262.732 56.968 263.095 56.968C263.351 56.968 263.596 57 263.831 57.064C264.065 57.128 264.311 57.2347 264.567 57.384L263.703 58.984C263.585 58.9093 263.431 58.8507 263.239 58.808C263.057 58.7547 262.881 58.728 262.711 58.728C262.487 58.728 262.263 58.7707 262.039 58.856C261.825 58.9413 261.633 59.0747 261.463 59.256C261.292 59.4267 261.164 59.6507 261.079 59.928C261.025 60.0773 260.983 60.2747 260.951 60.52C260.929 60.7547 260.919 61.0853 260.919 61.512V65H259.143ZM265.382 65V57.112H267.174V59.24L266.838 59.288C266.891 58.8293 267.046 58.4293 267.302 58.088C267.558 57.736 267.867 57.464 268.23 57.272C268.603 57.0693 268.971 56.968 269.334 56.968C269.59 56.968 269.835 57 270.07 57.064C270.304 57.128 270.55 57.2347 270.806 57.384L269.942 58.984C269.824 58.9093 269.67 58.8507 269.478 58.808C269.296 58.7547 269.12 58.728 268.95 58.728C268.726 58.728 268.502 58.7707 268.278 58.856C268.064 58.9413 267.872 59.0747 267.702 59.256C267.531 59.4267 267.403 59.6507 267.318 59.928C267.264 60.0773 267.222 60.2747 267.19 60.52C267.168 60.7547 267.158 61.0853 267.158 61.512V65H265.382ZM274.639 65.144C273.977 65.144 273.401 65.0373 272.911 64.824C272.431 64.6107 272.036 64.312 271.727 63.928C271.417 63.544 271.188 63.112 271.039 62.632C270.889 62.1413 270.815 61.6347 270.815 61.112C270.815 60.5893 270.884 60.0827 271.023 59.592C271.172 59.0907 271.396 58.6427 271.695 58.248C271.993 57.8533 272.377 57.544 272.847 57.32C273.316 57.0853 273.871 56.968 274.511 56.968C275.119 56.968 275.647 57.0747 276.095 57.288C276.553 57.4907 276.932 57.7787 277.231 58.152C277.529 58.5147 277.748 58.9307 277.887 59.4C278.036 59.8693 278.111 60.3707 278.111 60.904C278.111 60.9787 278.105 61.0853 278.095 61.224C278.095 61.3627 278.084 61.5013 278.063 61.64H272.591C272.633 62.2693 272.847 62.7493 273.231 63.08C273.615 63.4107 274.105 63.576 274.703 63.576C275.14 63.576 275.54 63.5067 275.903 63.368C276.265 63.2293 276.596 63.0107 276.895 62.712L277.871 63.896C277.54 64.1947 277.209 64.4347 276.879 64.616C276.548 64.7973 276.201 64.9307 275.839 65.016C275.487 65.1013 275.087 65.144 274.639 65.144ZM276.367 60.744C276.388 60.6587 276.399 60.5733 276.399 60.488C276.409 60.4027 276.415 60.3173 276.415 60.232C276.415 59.9973 276.372 59.7733 276.287 59.56C276.212 59.3467 276.095 59.16 275.935 59C275.775 58.8293 275.577 58.696 275.343 58.6C275.108 58.4933 274.841 58.44 274.543 58.44C274.127 58.44 273.775 58.5307 273.487 58.712C273.209 58.8933 272.991 59.128 272.831 59.416C272.681 59.6933 272.591 59.9973 272.559 60.328H276.943L276.367 60.744ZM279.359 65V57.112H281.135V58.856L280.815 58.936C280.954 58.4773 281.156 58.104 281.423 57.816C281.69 57.528 281.999 57.3147 282.351 57.176C282.714 57.0373 283.092 56.968 283.487 56.968C284.372 56.968 285.06 57.224 285.551 57.736C286.052 58.2373 286.303 58.9573 286.303 59.896V65H284.527V60.552C284.527 59.848 284.399 59.3307 284.143 59C283.887 58.6693 283.492 58.504 282.959 58.504C282.564 58.504 282.228 58.6 281.951 58.792C281.684 58.9733 281.482 59.2613 281.343 59.656C281.204 60.0507 281.135 60.552 281.135 61.16V65H279.359ZM290.681 65.144C290.286 65.144 289.913 65.0693 289.561 64.92C289.219 64.76 288.947 64.5093 288.745 64.168C288.542 63.816 288.441 63.3573 288.441 62.792V55.192L290.233 54.2V62.296C290.233 62.744 290.297 63.0907 290.425 63.336C290.563 63.5707 290.809 63.688 291.161 63.688C291.267 63.688 291.39 63.6773 291.529 63.656C291.678 63.624 291.833 63.5867 291.993 63.544V64.92C291.779 64.9947 291.561 65.048 291.337 65.08C291.123 65.1227 290.905 65.144 290.681 65.144ZM286.937 58.488V57.112H291.993V58.488H286.937ZM241.727 82.144C241.109 82.144 240.559 82.0373 240.079 81.824C239.61 81.6 239.215 81.296 238.895 80.912C238.586 80.5173 238.351 80.0747 238.191 79.584C238.031 79.0933 237.951 78.5813 237.951 78.048C237.951 77.5147 238.031 77.0027 238.191 76.512C238.351 76.0213 238.586 75.584 238.895 75.2C239.215 74.816 239.61 74.5173 240.079 74.304C240.559 74.08 241.109 73.968 241.727 73.968C242.506 73.968 243.183 74.1547 243.759 74.528C244.346 74.9013 244.778 75.4773 245.055 76.256L243.487 76.864C243.359 76.4587 243.151 76.1333 242.863 75.888C242.575 75.632 242.197 75.504 241.727 75.504C241.258 75.504 240.874 75.6267 240.575 75.872C240.287 76.1173 240.074 76.432 239.935 76.816C239.797 77.2 239.727 77.6107 239.727 78.048C239.727 78.4853 239.797 78.9013 239.935 79.296C240.074 79.68 240.287 79.9947 240.575 80.24C240.874 80.4747 241.258 80.592 241.727 80.592C242.197 80.592 242.575 80.4693 242.863 80.224C243.151 79.9787 243.359 79.6533 243.487 79.248L245.055 79.856C244.778 80.624 244.346 81.2 243.759 81.584C243.183 81.9573 242.506 82.144 241.727 82.144ZM249.735 82.144C248.988 82.144 248.316 81.968 247.719 81.616C247.122 81.264 246.652 80.7787 246.311 80.16C245.98 79.5413 245.815 78.8373 245.815 78.048C245.815 77.2587 245.98 76.5547 246.311 75.936C246.652 75.3173 247.116 74.8373 247.703 74.496C248.3 74.144 248.978 73.968 249.735 73.968C250.503 73.968 251.175 74.144 251.751 74.496C252.338 74.8373 252.802 75.3173 253.143 75.936C253.484 76.5547 253.655 77.2587 253.655 78.048C253.655 78.8373 253.484 79.5413 253.143 80.16C252.812 80.7787 252.348 81.264 251.751 81.616C251.164 81.968 250.492 82.144 249.735 82.144ZM249.751 80.576C250.188 80.576 250.567 80.4747 250.887 80.272C251.207 80.0693 251.452 79.776 251.623 79.392C251.794 79.008 251.879 78.56 251.879 78.048C251.879 77.5253 251.794 77.0773 251.623 76.704C251.452 76.32 251.207 76.0267 250.887 75.824C250.567 75.6213 250.188 75.52 249.751 75.52C249.292 75.52 248.903 75.6267 248.583 75.84C248.263 76.0427 248.018 76.3307 247.847 76.704C247.676 77.0773 247.591 77.5253 247.591 78.048C247.591 78.56 247.676 79.008 247.847 79.392C248.018 79.776 248.263 80.0693 248.583 80.272C248.903 80.4747 249.292 80.576 249.751 80.576ZM254.891 82V74.112H256.667V75.856L256.347 75.936C256.485 75.4773 256.688 75.104 256.955 74.816C257.221 74.528 257.531 74.3147 257.883 74.176C258.245 74.0373 258.624 73.968 259.019 73.968C259.904 73.968 260.592 74.224 261.083 74.736C261.584 75.2373 261.835 75.9573 261.835 76.896V82H260.059V77.552C260.059 76.848 259.931 76.3307 259.675 76C259.419 75.6693 259.024 75.504 258.491 75.504C258.096 75.504 257.76 75.6 257.483 75.792C257.216 75.9733 257.013 76.2613 256.875 76.656C256.736 77.0507 256.667 77.552 256.667 78.16V82H254.891ZM266.42 82.144C265.716 82.144 265.103 81.968 264.58 81.616C264.068 81.2533 263.673 80.7627 263.396 80.144C263.119 79.5253 262.98 78.8267 262.98 78.048C262.98 77.1947 263.129 76.464 263.428 75.856C263.737 75.248 264.153 74.784 264.676 74.464C265.199 74.1333 265.78 73.968 266.42 73.968C266.868 73.968 267.279 74.0587 267.652 74.24C268.036 74.4213 268.356 74.688 268.612 75.04C268.879 75.3813 269.065 75.8027 269.172 76.304L268.756 76.32V70.848H270.532V82H268.756V79.808L269.236 79.696C269.097 80.272 268.884 80.7413 268.596 81.104C268.319 81.456 267.993 81.7173 267.62 81.888C267.247 82.0587 266.847 82.144 266.42 82.144ZM266.852 80.512C267.268 80.512 267.631 80.4107 267.94 80.208C268.249 80.0053 268.489 79.7173 268.66 79.344C268.831 78.9707 268.916 78.5387 268.916 78.048C268.916 77.5573 268.831 77.1307 268.66 76.768C268.489 76.3947 268.249 76.1067 267.94 75.904C267.631 75.6907 267.268 75.584 266.852 75.584C266.436 75.584 266.068 75.6853 265.748 75.888C265.439 76.0907 265.193 76.3787 265.012 76.752C264.841 77.1253 264.756 77.5573 264.756 78.048C264.756 78.5387 264.841 78.9707 265.012 79.344C265.193 79.7173 265.439 80.0053 265.748 80.208C266.068 80.4107 266.436 80.512 266.852 80.512ZM272.118 82V74.112H273.894V82H272.118ZM272.038 72.816V70.848H273.974V72.816H272.038ZM278.346 82.144C277.951 82.144 277.578 82.0693 277.226 81.92C276.885 81.76 276.613 81.5093 276.41 81.168C276.207 80.816 276.106 80.3573 276.106 79.792V72.192L277.898 71.2V79.296C277.898 79.744 277.962 80.0907 278.09 80.336C278.229 80.5707 278.474 80.688 278.826 80.688C278.933 80.688 279.055 80.6773 279.194 80.656C279.343 80.624 279.498 80.5867 279.658 80.544V81.92C279.445 81.9947 279.226 82.048 279.002 82.08C278.789 82.1227 278.57 82.144 278.346 82.144ZM274.602 75.488V74.112H279.658V75.488H274.602ZM280.751 82V74.112H282.527V82H280.751ZM280.671 72.816V70.848H282.607V72.816H280.671ZM287.668 82.144C286.921 82.144 286.249 81.968 285.652 81.616C285.054 81.264 284.585 80.7787 284.244 80.16C283.913 79.5413 283.748 78.8373 283.748 78.048C283.748 77.2587 283.913 76.5547 284.244 75.936C284.585 75.3173 285.049 74.8373 285.636 74.496C286.233 74.144 286.91 73.968 287.668 73.968C288.436 73.968 289.108 74.144 289.684 74.496C290.27 74.8373 290.734 75.3173 291.076 75.936C291.417 76.5547 291.588 77.2587 291.588 78.048C291.588 78.8373 291.417 79.5413 291.076 80.16C290.745 80.7787 290.281 81.264 289.684 81.616C289.097 81.968 288.425 82.144 287.668 82.144ZM287.684 80.576C288.121 80.576 288.5 80.4747 288.82 80.272C289.14 80.0693 289.385 79.776 289.556 79.392C289.726 79.008 289.812 78.56 289.812 78.048C289.812 77.5253 289.726 77.0773 289.556 76.704C289.385 76.32 289.14 76.0267 288.82 75.824C288.5 75.6213 288.121 75.52 287.684 75.52C287.225 75.52 286.836 75.6267 286.516 75.84C286.196 76.0427 285.95 76.3307 285.78 76.704C285.609 77.0773 285.524 77.5253 285.524 78.048C285.524 78.56 285.609 79.008 285.78 79.392C285.95 79.776 286.196 80.0693 286.516 80.272C286.836 80.4747 287.225 80.576 287.684 80.576ZM292.823 82V74.112H294.599V75.856L294.279 75.936C294.418 75.4773 294.62 75.104 294.887 74.816C295.154 74.528 295.463 74.3147 295.815 74.176C296.178 74.0373 296.556 73.968 296.951 73.968C297.836 73.968 298.524 74.224 299.015 74.736C299.516 75.2373 299.767 75.9573 299.767 76.896V82H297.991V77.552C297.991 76.848 297.863 76.3307 297.607 76C297.351 75.6693 296.956 75.504 296.423 75.504C296.028 75.504 295.692 75.6 295.415 75.792C295.148 75.9733 294.946 76.2613 294.807 76.656C294.668 77.0507 294.599 77.552 294.599 78.16V82H292.823Z" fill="#021D1F"/>
<path d="M425.779 225V213.848H433.187V215.496H427.635V218.456H432.755V220.12H427.635V223.352H433.187V225H425.779ZM433.796 225L436.532 221.032L433.796 217.112H435.924L437.716 219.848L439.54 217.112H441.636L438.884 221.032L441.636 225H439.508L437.716 222.216L435.892 225H433.796ZM442.551 228.264V217.112H444.311V219.304L443.863 219.32C444.002 218.744 444.205 218.285 444.471 217.944C444.749 217.603 445.074 217.357 445.447 217.208C445.831 217.048 446.237 216.968 446.663 216.968C447.367 216.968 447.975 217.149 448.487 217.512C448.999 217.864 449.394 218.349 449.671 218.968C449.959 219.587 450.103 220.285 450.103 221.064C450.103 221.907 449.949 222.637 449.639 223.256C449.33 223.864 448.914 224.333 448.391 224.664C447.879 224.984 447.303 225.144 446.663 225.144C446.215 225.144 445.799 225.059 445.415 224.888C445.042 224.717 444.722 224.461 444.455 224.12C444.199 223.779 444.018 223.363 443.911 222.872L444.311 222.792V228.264H442.551ZM446.231 223.528C446.647 223.528 447.01 223.427 447.319 223.224C447.639 223.021 447.885 222.733 448.055 222.36C448.226 221.987 448.311 221.555 448.311 221.064C448.311 220.573 448.226 220.141 448.055 219.768C447.885 219.395 447.639 219.107 447.319 218.904C447.01 218.701 446.647 218.6 446.231 218.6C445.815 218.6 445.447 218.701 445.127 218.904C444.818 219.107 444.578 219.395 444.407 219.768C444.237 220.141 444.151 220.573 444.151 221.064C444.151 221.555 444.237 221.987 444.407 222.36C444.578 222.723 444.818 223.011 445.127 223.224C445.447 223.427 445.815 223.528 446.231 223.528ZM453.081 225.144C452.569 225.144 452.142 224.989 451.801 224.68C451.46 224.36 451.289 223.853 451.289 223.16V213.848H453.065V222.808C453.065 223.053 453.118 223.235 453.225 223.352C453.342 223.459 453.492 223.512 453.673 223.512C453.769 223.512 453.865 223.501 453.961 223.48C454.068 223.459 454.174 223.432 454.281 223.4V224.904C454.078 224.989 453.87 225.048 453.657 225.08C453.444 225.123 453.252 225.144 453.081 225.144ZM458.784 225.144C458.037 225.144 457.365 224.968 456.768 224.616C456.171 224.264 455.701 223.779 455.36 223.16C455.029 222.541 454.864 221.837 454.864 221.048C454.864 220.259 455.029 219.555 455.36 218.936C455.701 218.317 456.165 217.837 456.752 217.496C457.349 217.144 458.027 216.968 458.784 216.968C459.552 216.968 460.224 217.144 460.8 217.496C461.387 217.837 461.851 218.317 462.192 218.936C462.533 219.555 462.704 220.259 462.704 221.048C462.704 221.837 462.533 222.541 462.192 223.16C461.861 223.779 461.397 224.264 460.8 224.616C460.213 224.968 459.541 225.144 458.784 225.144ZM458.8 223.576C459.237 223.576 459.616 223.475 459.936 223.272C460.256 223.069 460.501 222.776 460.672 222.392C460.843 222.008 460.928 221.56 460.928 221.048C460.928 220.525 460.843 220.077 460.672 219.704C460.501 219.32 460.256 219.027 459.936 218.824C459.616 218.621 459.237 218.52 458.8 218.52C458.341 218.52 457.952 218.627 457.632 218.84C457.312 219.043 457.067 219.331 456.896 219.704C456.725 220.077 456.64 220.525 456.64 221.048C456.64 221.56 456.725 222.008 456.896 222.392C457.067 222.776 457.312 223.069 457.632 223.272C457.952 223.475 458.341 223.576 458.8 223.576ZM463.939 225V217.112H465.731V219.24L465.395 219.288C465.449 218.829 465.603 218.429 465.859 218.088C466.115 217.736 466.425 217.464 466.787 217.272C467.161 217.069 467.529 216.968 467.891 216.968C468.147 216.968 468.393 217 468.627 217.064C468.862 217.128 469.107 217.235 469.363 217.384L468.499 218.984C468.382 218.909 468.227 218.851 468.035 218.808C467.854 218.755 467.678 218.728 467.507 218.728C467.283 218.728 467.059 218.771 466.835 218.856C466.622 218.941 466.43 219.075 466.259 219.256C466.089 219.427 465.961 219.651 465.875 219.928C465.822 220.077 465.779 220.275 465.747 220.52C465.726 220.755 465.715 221.085 465.715 221.512V225H463.939ZM473.197 225.144C472.535 225.144 471.959 225.037 471.469 224.824C470.989 224.611 470.594 224.312 470.285 223.928C469.975 223.544 469.746 223.112 469.597 222.632C469.447 222.141 469.373 221.635 469.373 221.112C469.373 220.589 469.442 220.083 469.581 219.592C469.73 219.091 469.954 218.643 470.253 218.248C470.551 217.853 470.935 217.544 471.405 217.32C471.874 217.085 472.429 216.968 473.069 216.968C473.677 216.968 474.205 217.075 474.653 217.288C475.111 217.491 475.49 217.779 475.789 218.152C476.087 218.515 476.306 218.931 476.445 219.4C476.594 219.869 476.669 220.371 476.669 220.904C476.669 220.979 476.663 221.085 476.653 221.224C476.653 221.363 476.642 221.501 476.621 221.64H471.149C471.191 222.269 471.405 222.749 471.789 223.08C472.173 223.411 472.663 223.576 473.261 223.576C473.698 223.576 474.098 223.507 474.461 223.368C474.823 223.229 475.154 223.011 475.453 222.712L476.429 223.896C476.098 224.195 475.767 224.435 475.437 224.616C475.106 224.797 474.759 224.931 474.397 225.016C474.045 225.101 473.645 225.144 473.197 225.144ZM474.925 220.744C474.946 220.659 474.957 220.573 474.957 220.488C474.967 220.403 474.973 220.317 474.973 220.232C474.973 219.997 474.93 219.773 474.845 219.56C474.77 219.347 474.653 219.16 474.493 219C474.333 218.829 474.135 218.696 473.901 218.6C473.666 218.493 473.399 218.44 473.101 218.44C472.685 218.44 472.333 218.531 472.045 218.712C471.767 218.893 471.549 219.128 471.389 219.416C471.239 219.693 471.149 219.997 471.117 220.328H475.501L474.925 220.744ZM423.9 245.264V234.112H425.66V236.304L425.212 236.32C425.35 235.744 425.553 235.285 425.82 234.944C426.097 234.603 426.422 234.357 426.796 234.208C427.18 234.048 427.585 233.968 428.012 233.968C428.716 233.968 429.324 234.149 429.836 234.512C430.348 234.864 430.742 235.349 431.02 235.968C431.308 236.587 431.452 237.285 431.452 238.064C431.452 238.907 431.297 239.637 430.988 240.256C430.678 240.864 430.262 241.333 429.74 241.664C429.228 241.984 428.652 242.144 428.012 242.144C427.564 242.144 427.148 242.059 426.764 241.888C426.39 241.717 426.07 241.461 425.804 241.12C425.548 240.779 425.366 240.363 425.26 239.872L425.66 239.792V245.264H423.9ZM427.58 240.528C427.996 240.528 428.358 240.427 428.668 240.224C428.988 240.021 429.233 239.733 429.404 239.36C429.574 238.987 429.66 238.555 429.66 238.064C429.66 237.573 429.574 237.141 429.404 236.768C429.233 236.395 428.988 236.107 428.668 235.904C428.358 235.701 427.996 235.6 427.58 235.6C427.164 235.6 426.796 235.701 426.476 235.904C426.166 236.107 425.926 236.395 425.756 236.768C425.585 237.141 425.5 237.573 425.5 238.064C425.5 238.555 425.585 238.987 425.756 239.36C425.926 239.723 426.166 240.011 426.476 240.224C426.796 240.427 427.164 240.528 427.58 240.528ZM436.237 242.144C435.491 242.144 434.819 241.968 434.221 241.616C433.624 241.264 433.155 240.779 432.813 240.16C432.483 239.541 432.317 238.837 432.317 238.048C432.317 237.259 432.483 236.555 432.813 235.936C433.155 235.317 433.619 234.837 434.205 234.496C434.803 234.144 435.48 233.968 436.237 233.968C437.005 233.968 437.677 234.144 438.253 234.496C438.84 234.837 439.304 235.317 439.645 235.936C439.987 236.555 440.157 237.259 440.157 238.048C440.157 238.837 439.987 239.541 439.645 240.16C439.315 240.779 438.851 241.264 438.253 241.616C437.667 241.968 436.995 242.144 436.237 242.144ZM436.253 240.576C436.691 240.576 437.069 240.475 437.389 240.272C437.709 240.069 437.955 239.776 438.125 239.392C438.296 239.008 438.381 238.56 438.381 238.048C438.381 237.525 438.296 237.077 438.125 236.704C437.955 236.32 437.709 236.027 437.389 235.824C437.069 235.621 436.691 235.52 436.253 235.52C435.795 235.52 435.405 235.627 435.085 235.84C434.765 236.043 434.52 236.331 434.349 236.704C434.179 237.077 434.093 237.525 434.093 238.048C434.093 238.56 434.179 239.008 434.349 239.392C434.52 239.776 434.765 240.069 435.085 240.272C435.405 240.475 435.795 240.576 436.253 240.576ZM444.081 242.144C443.515 242.144 443.014 242.064 442.577 241.904C442.139 241.733 441.771 241.52 441.473 241.264C441.174 241.008 440.929 240.752 440.737 240.496L441.953 239.44C442.155 239.771 442.433 240.064 442.785 240.32C443.147 240.576 443.585 240.704 444.097 240.704C444.523 240.704 444.859 240.613 445.105 240.432C445.361 240.251 445.489 240.027 445.489 239.76C445.489 239.525 445.409 239.344 445.249 239.216C445.089 239.077 444.881 238.96 444.625 238.864C444.369 238.768 444.086 238.683 443.777 238.608C443.478 238.533 443.174 238.443 442.865 238.336C442.555 238.219 442.267 238.075 442.001 237.904C441.745 237.733 441.537 237.515 441.377 237.248C441.217 236.981 441.137 236.651 441.137 236.256C441.137 235.563 441.403 235.008 441.937 234.592C442.47 234.176 443.169 233.968 444.033 233.968C444.651 233.968 445.217 234.091 445.729 234.336C446.241 234.581 446.641 234.949 446.929 235.44L445.825 236.288C445.611 235.968 445.345 235.728 445.025 235.568C444.705 235.408 444.358 235.328 443.985 235.328C443.643 235.328 443.355 235.397 443.121 235.536C442.897 235.675 442.785 235.856 442.785 236.08C442.785 236.251 442.838 236.389 442.945 236.496C443.051 236.603 443.217 236.699 443.441 236.784C443.665 236.869 443.947 236.955 444.289 237.04C444.609 237.115 444.939 237.205 445.281 237.312C445.622 237.419 445.937 237.563 446.225 237.744C446.523 237.915 446.763 238.149 446.945 238.448C447.137 238.736 447.233 239.109 447.233 239.568C447.233 240.08 447.099 240.533 446.833 240.928C446.577 241.312 446.209 241.611 445.729 241.824C445.259 242.037 444.71 242.144 444.081 242.144ZM451.132 242.144C450.567 242.144 450.065 242.064 449.628 241.904C449.191 241.733 448.823 241.52 448.524 241.264C448.225 241.008 447.98 240.752 447.788 240.496L449.004 239.44C449.207 239.771 449.484 240.064 449.836 240.32C450.199 240.576 450.636 240.704 451.148 240.704C451.575 240.704 451.911 240.613 452.156 240.432C452.412 240.251 452.54 240.027 452.54 239.76C452.54 239.525 452.46 239.344 452.3 239.216C452.14 239.077 451.932 238.96 451.676 238.864C451.42 238.768 451.137 238.683 450.828 238.608C450.529 238.533 450.225 238.443 449.916 238.336C449.607 238.219 449.319 238.075 449.052 237.904C448.796 237.733 448.588 237.515 448.428 237.248C448.268 236.981 448.188 236.651 448.188 236.256C448.188 235.563 448.455 235.008 448.988 234.592C449.521 234.176 450.22 233.968 451.084 233.968C451.703 233.968 452.268 234.091 452.78 234.336C453.292 234.581 453.692 234.949 453.98 235.44L452.876 236.288C452.663 235.968 452.396 235.728 452.076 235.568C451.756 235.408 451.409 235.328 451.036 235.328C450.695 235.328 450.407 235.397 450.172 235.536C449.948 235.675 449.836 235.856 449.836 236.08C449.836 236.251 449.889 236.389 449.996 236.496C450.103 236.603 450.268 236.699 450.492 236.784C450.716 236.869 450.999 236.955 451.34 237.04C451.66 237.115 451.991 237.205 452.332 237.312C452.673 237.419 452.988 237.563 453.276 237.744C453.575 237.915 453.815 238.149 453.996 238.448C454.188 238.736 454.284 239.109 454.284 239.568C454.284 240.08 454.151 240.533 453.884 240.928C453.628 241.312 453.26 241.611 452.78 241.824C452.311 242.037 451.761 242.144 451.132 242.144ZM455.479 242V234.112H457.255V242H455.479ZM455.399 232.816V230.848H457.335V232.816H455.399ZM462.955 242.144C462.529 242.144 462.123 242.059 461.739 241.888C461.366 241.717 461.041 241.456 460.763 241.104C460.486 240.741 460.278 240.272 460.139 239.696L460.603 239.808V242H458.843V230.848H460.603V236.32H460.203C460.31 235.819 460.491 235.397 460.747 235.056C461.014 234.704 461.334 234.437 461.707 234.256C462.091 234.064 462.507 233.968 462.955 233.968C463.595 233.968 464.171 234.133 464.683 234.464C465.206 234.784 465.622 235.248 465.931 235.856C466.241 236.464 466.395 237.195 466.395 238.048C466.395 238.827 466.251 239.525 465.963 240.144C465.686 240.763 465.291 241.253 464.779 241.616C464.267 241.968 463.659 242.144 462.955 242.144ZM462.523 240.512C462.939 240.512 463.302 240.411 463.611 240.208C463.931 240.005 464.177 239.717 464.347 239.344C464.518 238.971 464.603 238.539 464.603 238.048C464.603 237.557 464.518 237.125 464.347 236.752C464.177 236.379 463.931 236.091 463.611 235.888C463.302 235.685 462.939 235.584 462.523 235.584C462.107 235.584 461.739 235.691 461.419 235.904C461.11 236.107 460.87 236.395 460.699 236.768C460.529 237.131 460.443 237.557 460.443 238.048C460.443 238.539 460.529 238.971 460.699 239.344C460.87 239.717 461.11 240.005 461.419 240.208C461.739 240.411 462.107 240.512 462.523 240.512ZM469.373 242.144C468.861 242.144 468.434 241.989 468.093 241.68C467.752 241.36 467.581 240.853 467.581 240.16V230.848H469.357V239.808C469.357 240.053 469.41 240.235 469.517 240.352C469.634 240.459 469.784 240.512 469.965 240.512C470.061 240.512 470.157 240.501 470.253 240.48C470.36 240.459 470.466 240.432 470.573 240.4V241.904C470.37 241.989 470.162 242.048 469.949 242.08C469.736 242.123 469.544 242.144 469.373 242.144ZM474.98 242.144C474.319 242.144 473.743 242.037 473.252 241.824C472.772 241.611 472.377 241.312 472.068 240.928C471.759 240.544 471.529 240.112 471.38 239.632C471.231 239.141 471.156 238.635 471.156 238.112C471.156 237.589 471.225 237.083 471.364 236.592C471.513 236.091 471.737 235.643 472.036 235.248C472.335 234.853 472.719 234.544 473.188 234.32C473.657 234.085 474.212 233.968 474.852 233.968C475.46 233.968 475.988 234.075 476.436 234.288C476.895 234.491 477.273 234.779 477.572 235.152C477.871 235.515 478.089 235.931 478.228 236.4C478.377 236.869 478.452 237.371 478.452 237.904C478.452 237.979 478.447 238.085 478.436 238.224C478.436 238.363 478.425 238.501 478.404 238.64H472.932C472.975 239.269 473.188 239.749 473.572 240.08C473.956 240.411 474.447 240.576 475.044 240.576C475.481 240.576 475.881 240.507 476.244 240.368C476.607 240.229 476.937 240.011 477.236 239.712L478.212 240.896C477.881 241.195 477.551 241.435 477.22 241.616C476.889 241.797 476.543 241.931 476.18 242.016C475.828 242.101 475.428 242.144 474.98 242.144ZM476.708 237.744C476.729 237.659 476.74 237.573 476.74 237.488C476.751 237.403 476.756 237.317 476.756 237.232C476.756 236.997 476.713 236.773 476.628 236.56C476.553 236.347 476.436 236.16 476.276 236C476.116 235.829 475.919 235.696 475.684 235.6C475.449 235.493 475.183 235.44 474.884 235.44C474.468 235.44 474.116 235.531 473.828 235.712C473.551 235.893 473.332 236.128 473.172 236.416C473.023 236.693 472.932 236.997 472.9 237.328H477.284L476.708 237.744ZM424.007 259.144C423.442 259.144 422.941 259.064 422.503 258.904C422.066 258.733 421.698 258.52 421.399 258.264C421.101 258.008 420.855 257.752 420.663 257.496L421.879 256.44C422.082 256.771 422.359 257.064 422.711 257.32C423.074 257.576 423.511 257.704 424.023 257.704C424.45 257.704 424.786 257.613 425.031 257.432C425.287 257.251 425.415 257.027 425.415 256.76C425.415 256.525 425.335 256.344 425.175 256.216C425.015 256.077 424.807 255.96 424.551 255.864C424.295 255.768 424.013 255.683 423.703 255.608C423.405 255.533 423.101 255.443 422.791 255.336C422.482 255.219 422.194 255.075 421.927 254.904C421.671 254.733 421.463 254.515 421.303 254.248C421.143 253.981 421.063 253.651 421.063 253.256C421.063 252.563 421.33 252.008 421.863 251.592C422.397 251.176 423.095 250.968 423.959 250.968C424.578 250.968 425.143 251.091 425.655 251.336C426.167 251.581 426.567 251.949 426.855 252.44L425.751 253.288C425.538 252.968 425.271 252.728 424.951 252.568C424.631 252.408 424.285 252.328 423.911 252.328C423.57 252.328 423.282 252.397 423.047 252.536C422.823 252.675 422.711 252.856 422.711 253.08C422.711 253.251 422.765 253.389 422.871 253.496C422.978 253.603 423.143 253.699 423.367 253.784C423.591 253.869 423.874 253.955 424.215 254.04C424.535 254.115 424.866 254.205 425.207 254.312C425.549 254.419 425.863 254.563 426.151 254.744C426.45 254.915 426.69 255.149 426.871 255.448C427.063 255.736 427.159 256.109 427.159 256.568C427.159 257.08 427.026 257.533 426.759 257.928C426.503 258.312 426.135 258.611 425.655 258.824C425.186 259.037 424.637 259.144 424.007 259.144ZM431.923 259.144C431.176 259.144 430.504 258.968 429.907 258.616C429.309 258.264 428.84 257.779 428.499 257.16C428.168 256.541 428.003 255.837 428.003 255.048C428.003 254.259 428.168 253.555 428.499 252.936C428.84 252.317 429.304 251.837 429.891 251.496C430.488 251.144 431.165 250.968 431.923 250.968C432.691 250.968 433.363 251.144 433.939 251.496C434.525 251.837 434.989 252.317 435.331 252.936C435.672 253.555 435.843 254.259 435.843 255.048C435.843 255.837 435.672 256.541 435.331 257.16C435 257.779 434.536 258.264 433.939 258.616C433.352 258.968 432.68 259.144 431.923 259.144ZM431.939 257.576C432.376 257.576 432.755 257.475 433.075 257.272C433.395 257.069 433.64 256.776 433.811 256.392C433.981 256.008 434.067 255.56 434.067 255.048C434.067 254.525 433.981 254.077 433.811 253.704C433.64 253.32 433.395 253.027 433.075 252.824C432.755 252.621 432.376 252.52 431.939 252.52C431.48 252.52 431.091 252.627 430.771 252.84C430.451 253.043 430.205 253.331 430.035 253.704C429.864 254.077 429.779 254.525 429.779 255.048C429.779 255.56 429.864 256.008 430.035 256.392C430.205 256.776 430.451 257.069 430.771 257.272C431.091 257.475 431.48 257.576 431.939 257.576ZM438.822 259.144C438.31 259.144 437.883 258.989 437.542 258.68C437.201 258.36 437.03 257.853 437.03 257.16V247.848H438.806V256.808C438.806 257.053 438.859 257.235 438.966 257.352C439.083 257.459 439.233 257.512 439.414 257.512C439.51 257.512 439.606 257.501 439.702 257.48C439.809 257.459 439.915 257.432 440.022 257.4V258.904C439.819 258.989 439.611 259.048 439.398 259.08C439.185 259.123 438.993 259.144 438.822 259.144ZM443.709 259.144C443.09 259.144 442.568 259.021 442.141 258.776C441.725 258.531 441.41 258.179 441.197 257.72C440.984 257.261 440.877 256.707 440.877 256.056V251.112H442.653V255.576C442.653 255.992 442.701 256.355 442.797 256.664C442.904 256.963 443.069 257.192 443.293 257.352C443.528 257.512 443.842 257.592 444.237 257.592C444.696 257.592 445.053 257.475 445.309 257.24C445.576 256.995 445.762 256.643 445.869 256.184C445.986 255.715 446.045 255.155 446.045 254.504V251.112H447.821V259H446.045V257.304L446.349 257.416C446.104 258.013 445.746 258.451 445.277 258.728C444.818 259.005 444.296 259.144 443.709 259.144ZM452.295 259.144C451.9 259.144 451.527 259.069 451.175 258.92C450.833 258.76 450.561 258.509 450.359 258.168C450.156 257.816 450.055 257.357 450.055 256.792V249.192L451.847 248.2V256.296C451.847 256.744 451.911 257.091 452.039 257.336C452.177 257.571 452.423 257.688 452.775 257.688C452.881 257.688 453.004 257.677 453.143 257.656C453.292 257.624 453.447 257.587 453.607 257.544V258.92C453.393 258.995 453.175 259.048 452.951 259.08C452.737 259.123 452.519 259.144 452.295 259.144ZM448.551 252.488V251.112H453.607V252.488H448.551ZM454.7 259V251.112H456.476V259H454.7ZM454.62 249.816V247.848H456.556V249.816H454.62ZM461.616 259.144C460.87 259.144 460.198 258.968 459.6 258.616C459.003 258.264 458.534 257.779 458.192 257.16C457.862 256.541 457.696 255.837 457.696 255.048C457.696 254.259 457.862 253.555 458.192 252.936C458.534 252.317 458.998 251.837 459.584 251.496C460.182 251.144 460.859 250.968 461.616 250.968C462.384 250.968 463.056 251.144 463.632 251.496C464.219 251.837 464.683 252.317 465.024 252.936C465.366 253.555 465.536 254.259 465.536 255.048C465.536 255.837 465.366 256.541 465.024 257.16C464.694 257.779 464.23 258.264 463.632 258.616C463.046 258.968 462.374 259.144 461.616 259.144ZM461.632 257.576C462.07 257.576 462.448 257.475 462.768 257.272C463.088 257.069 463.334 256.776 463.504 256.392C463.675 256.008 463.76 255.56 463.76 255.048C463.76 254.525 463.675 254.077 463.504 253.704C463.334 253.32 463.088 253.027 462.768 252.824C462.448 252.621 462.07 252.52 461.632 252.52C461.174 252.52 460.784 252.627 460.464 252.84C460.144 253.043 459.899 253.331 459.728 253.704C459.558 254.077 459.472 254.525 459.472 255.048C459.472 255.56 459.558 256.008 459.728 256.392C459.899 256.776 460.144 257.069 460.464 257.272C460.784 257.475 461.174 257.576 461.632 257.576ZM466.772 259V251.112H468.548V252.856L468.228 252.936C468.367 252.477 468.569 252.104 468.836 251.816C469.103 251.528 469.412 251.315 469.764 251.176C470.127 251.037 470.505 250.968 470.9 250.968C471.785 250.968 472.473 251.224 472.964 251.736C473.465 252.237 473.716 252.957 473.716 253.896V259H471.94V254.552C471.94 253.848 471.812 253.331 471.556 253C471.3 252.669 470.905 252.504 470.372 252.504C469.977 252.504 469.641 252.6 469.364 252.792C469.097 252.973 468.895 253.261 468.756 253.656C468.617 254.051 468.548 254.552 468.548 255.16V259H466.772ZM477.917 259.144C477.352 259.144 476.851 259.064 476.413 258.904C475.976 258.733 475.608 258.52 475.309 258.264C475.011 258.008 474.765 257.752 474.573 257.496L475.789 256.44C475.992 256.771 476.269 257.064 476.621 257.32C476.984 257.576 477.421 257.704 477.933 257.704C478.36 257.704 478.696 257.613 478.941 257.432C479.197 257.251 479.325 257.027 479.325 256.76C479.325 256.525 479.245 256.344 479.085 256.216C478.925 256.077 478.717 255.96 478.461 255.864C478.205 255.768 477.923 255.683 477.613 255.608C477.315 255.533 477.011 255.443 476.701 255.336C476.392 255.219 476.104 255.075 475.837 254.904C475.581 254.733 475.373 254.515 475.213 254.248C475.053 253.981 474.973 253.651 474.973 253.256C474.973 252.563 475.24 252.008 475.773 251.592C476.307 251.176 477.005 250.968 477.869 250.968C478.488 250.968 479.053 251.091 479.565 251.336C480.077 251.581 480.477 251.949 480.765 252.44L479.661 253.288C479.448 252.968 479.181 252.728 478.861 252.568C478.541 252.408 478.195 252.328 477.821 252.328C477.48 252.328 477.192 252.397 476.957 252.536C476.733 252.675 476.621 252.856 476.621 253.08C476.621 253.251 476.675 253.389 476.781 253.496C476.888 253.603 477.053 253.699 477.277 253.784C477.501 253.869 477.784 253.955 478.125 254.04C478.445 254.115 478.776 254.205 479.117 254.312C479.459 254.419 479.773 254.563 480.061 254.744C480.36 254.915 480.6 255.149 480.781 255.448C480.973 255.736 481.069 256.109 481.069 256.568C481.069 257.08 480.936 257.533 480.669 257.928C480.413 258.312 480.045 258.611 479.565 258.824C479.096 259.037 478.547 259.144 477.917 259.144Z" fill="#021D1F"/>
<path d="M254.663 412.208C253.489 412.208 252.529 411.904 251.783 411.296C251.047 410.688 250.593 409.877 250.423 408.864L252.231 408.416C252.348 409.12 252.625 409.653 253.063 410.016C253.511 410.379 254.06 410.56 254.711 410.56C255.073 410.56 255.399 410.496 255.687 410.368C255.975 410.229 256.199 410.037 256.359 409.792C256.529 409.547 256.615 409.269 256.615 408.96C256.615 408.629 256.524 408.357 256.343 408.144C256.161 407.92 255.9 407.723 255.559 407.552C255.217 407.371 254.801 407.184 254.311 406.992C253.639 406.736 253.068 406.459 252.599 406.16C252.129 405.861 251.772 405.509 251.527 405.104C251.281 404.688 251.159 404.197 251.159 403.632C251.159 403.045 251.303 402.528 251.591 402.08C251.879 401.621 252.284 401.264 252.807 401.008C253.329 400.752 253.932 400.624 254.615 400.624C255.351 400.624 256.001 400.789 256.567 401.12C257.132 401.451 257.585 401.952 257.927 402.624L256.455 403.52C256.231 403.115 255.959 402.805 255.639 402.592C255.319 402.368 254.956 402.256 254.551 402.256C254.263 402.256 254.001 402.315 253.767 402.432C253.532 402.539 253.345 402.693 253.207 402.896C253.079 403.099 253.015 403.333 253.015 403.6C253.015 403.877 253.095 404.123 253.255 404.336C253.415 404.539 253.66 404.725 253.991 404.896C254.332 405.067 254.764 405.253 255.287 405.456C255.959 405.712 256.529 405.989 256.999 406.288C257.468 406.587 257.825 406.944 258.071 407.36C258.327 407.765 258.455 408.261 258.455 408.848C258.455 409.499 258.295 410.075 257.975 410.576C257.655 411.077 257.207 411.477 256.631 411.776C256.065 412.064 255.409 412.208 254.663 412.208ZM263.099 412.144C262.437 412.144 261.861 412.037 261.371 411.824C260.891 411.611 260.496 411.312 260.187 410.928C259.877 410.544 259.648 410.112 259.499 409.632C259.349 409.141 259.275 408.635 259.275 408.112C259.275 407.589 259.344 407.083 259.483 406.592C259.632 406.091 259.856 405.643 260.155 405.248C260.453 404.853 260.837 404.544 261.307 404.32C261.776 404.085 262.331 403.968 262.971 403.968C263.579 403.968 264.107 404.075 264.555 404.288C265.013 404.491 265.392 404.779 265.691 405.152C265.989 405.515 266.208 405.931 266.347 406.4C266.496 406.869 266.571 407.371 266.571 407.904C266.571 407.979 266.565 408.085 266.555 408.224C266.555 408.363 266.544 408.501 266.523 408.64H261.051C261.093 409.269 261.307 409.749 261.691 410.08C262.075 410.411 262.565 410.576 263.163 410.576C263.6 410.576 264 410.507 264.363 410.368C264.725 410.229 265.056 410.011 265.355 409.712L266.331 410.896C266 411.195 265.669 411.435 265.339 411.616C265.008 411.797 264.661 411.931 264.299 412.016C263.947 412.101 263.547 412.144 263.099 412.144ZM264.827 407.744C264.848 407.659 264.859 407.573 264.859 407.488C264.869 407.403 264.875 407.317 264.875 407.232C264.875 406.997 264.832 406.773 264.747 406.56C264.672 406.347 264.555 406.16 264.395 406C264.235 405.829 264.037 405.696 263.803 405.6C263.568 405.493 263.301 405.44 263.003 405.44C262.587 405.44 262.235 405.531 261.947 405.712C261.669 405.893 261.451 406.128 261.291 406.416C261.141 406.693 261.051 406.997 261.019 407.328H265.403L264.827 407.744ZM270.636 412.144C270.242 412.144 269.868 412.069 269.516 411.92C269.175 411.76 268.903 411.509 268.7 411.168C268.498 410.816 268.396 410.357 268.396 409.792V402.192L270.188 401.2V409.296C270.188 409.744 270.252 410.091 270.38 410.336C270.519 410.571 270.764 410.688 271.116 410.688C271.223 410.688 271.346 410.677 271.484 410.656C271.634 410.624 271.788 410.587 271.948 410.544V411.92C271.735 411.995 271.516 412.048 271.292 412.08C271.079 412.123 270.86 412.144 270.636 412.144ZM266.892 405.488V404.112H271.948V405.488H266.892ZM281.822 412L281.694 410.672V407.024C281.694 406.512 281.539 406.128 281.23 405.872C280.921 405.605 280.489 405.472 279.934 405.472C279.507 405.472 279.086 405.557 278.67 405.728C278.265 405.888 277.891 406.139 277.55 406.48L276.558 405.312C277.07 404.832 277.614 404.491 278.19 404.288C278.766 404.075 279.395 403.968 280.078 403.968C281.145 403.968 281.971 404.24 282.558 404.784C283.155 405.317 283.454 406.064 283.454 407.024V412H281.822ZM279.374 412.144C278.787 412.144 278.265 412.037 277.806 411.824C277.358 411.611 277.006 411.312 276.75 410.928C276.505 410.544 276.382 410.096 276.382 409.584C276.382 409.147 276.473 408.768 276.654 408.448C276.846 408.128 277.091 407.877 277.39 407.696C277.646 407.536 277.945 407.424 278.286 407.36C278.627 407.285 278.985 407.248 279.358 407.248H281.838V408.576H279.614C279.422 408.576 279.23 408.597 279.038 408.64C278.846 408.672 278.675 408.736 278.526 408.832C278.419 408.917 278.329 409.024 278.254 409.152C278.19 409.28 278.158 409.429 278.158 409.6C278.158 409.941 278.286 410.213 278.542 410.416C278.809 410.608 279.161 410.704 279.598 410.704C279.982 410.704 280.329 410.619 280.638 410.448C280.958 410.277 281.214 410.043 281.406 409.744C281.598 409.445 281.694 409.109 281.694 408.736L282.238 409.616C282.11 410.171 281.907 410.64 281.63 411.024C281.353 411.397 281.022 411.68 280.638 411.872C280.254 412.053 279.833 412.144 279.374 412.144ZM250.078 429.144C249.459 429.144 248.91 429.037 248.43 428.824C247.96 428.6 247.566 428.296 247.246 427.912C246.936 427.517 246.702 427.075 246.542 426.584C246.382 426.093 246.302 425.581 246.302 425.048C246.302 424.515 246.382 424.003 246.542 423.512C246.702 423.021 246.936 422.584 247.246 422.2C247.566 421.816 247.96 421.517 248.43 421.304C248.91 421.08 249.459 420.968 250.078 420.968C250.856 420.968 251.534 421.155 252.11 421.528C252.696 421.901 253.128 422.477 253.406 423.256L251.838 423.864C251.71 423.459 251.502 423.133 251.214 422.888C250.926 422.632 250.547 422.504 250.078 422.504C249.608 422.504 249.224 422.627 248.926 422.872C248.638 423.117 248.424 423.432 248.286 423.816C248.147 424.2 248.078 424.611 248.078 425.048C248.078 425.485 248.147 425.901 248.286 426.296C248.424 426.68 248.638 426.995 248.926 427.24C249.224 427.475 249.608 427.592 250.078 427.592C250.547 427.592 250.926 427.469 251.214 427.224C251.502 426.979 251.71 426.653 251.838 426.248L253.406 426.856C253.128 427.624 252.696 428.2 252.11 428.584C251.534 428.957 250.856 429.144 250.078 429.144ZM258.085 429.144C257.339 429.144 256.667 428.968 256.069 428.616C255.472 428.264 255.003 427.779 254.661 427.16C254.331 426.541 254.165 425.837 254.165 425.048C254.165 424.259 254.331 423.555 254.661 422.936C255.003 422.317 255.467 421.837 256.053 421.496C256.651 421.144 257.328 420.968 258.085 420.968C258.853 420.968 259.525 421.144 260.101 421.496C260.688 421.837 261.152 422.317 261.493 422.936C261.835 423.555 262.005 424.259 262.005 425.048C262.005 425.837 261.835 426.541 261.493 427.16C261.163 427.779 260.699 428.264 260.101 428.616C259.515 428.968 258.843 429.144 258.085 429.144ZM258.101 427.576C258.539 427.576 258.917 427.475 259.237 427.272C259.557 427.069 259.803 426.776 259.973 426.392C260.144 426.008 260.229 425.56 260.229 425.048C260.229 424.525 260.144 424.077 259.973 423.704C259.803 423.32 259.557 423.027 259.237 422.824C258.917 422.621 258.539 422.52 258.101 422.52C257.643 422.52 257.253 422.627 256.933 422.84C256.613 423.043 256.368 423.331 256.197 423.704C256.027 424.077 255.941 424.525 255.941 425.048C255.941 425.56 256.027 426.008 256.197 426.392C256.368 426.776 256.613 427.069 256.933 427.272C257.253 427.475 257.643 427.576 258.101 427.576ZM265.977 429.144C265.358 429.144 264.836 429.021 264.409 428.776C263.993 428.531 263.678 428.179 263.465 427.72C263.252 427.261 263.145 426.707 263.145 426.056V421.112H264.921V425.576C264.921 425.992 264.969 426.355 265.065 426.664C265.172 426.963 265.337 427.192 265.561 427.352C265.796 427.512 266.11 427.592 266.505 427.592C266.964 427.592 267.321 427.475 267.577 427.24C267.844 426.995 268.03 426.643 268.137 426.184C268.254 425.715 268.313 425.155 268.313 424.504V421.112H270.089V429H268.313V427.304L268.617 427.416C268.372 428.013 268.014 428.451 267.545 428.728C267.086 429.005 266.564 429.144 265.977 429.144ZM271.698 429V421.112H273.49V423.24L273.154 423.288C273.208 422.829 273.362 422.429 273.618 422.088C273.874 421.736 274.184 421.464 274.546 421.272C274.92 421.069 275.288 420.968 275.65 420.968C275.906 420.968 276.152 421 276.386 421.064C276.621 421.128 276.866 421.235 277.122 421.384L276.258 422.984C276.141 422.909 275.986 422.851 275.794 422.808C275.613 422.755 275.437 422.728 275.266 422.728C275.042 422.728 274.818 422.771 274.594 422.856C274.381 422.941 274.189 423.075 274.018 423.256C273.848 423.427 273.72 423.651 273.634 423.928C273.581 424.077 273.538 424.275 273.506 424.52C273.485 424.755 273.474 425.085 273.474 425.512V429H271.698ZM280.391 429.144C279.825 429.144 279.324 429.064 278.887 428.904C278.449 428.733 278.081 428.52 277.783 428.264C277.484 428.008 277.239 427.752 277.047 427.496L278.263 426.44C278.465 426.771 278.743 427.064 279.095 427.32C279.457 427.576 279.895 427.704 280.407 427.704C280.833 427.704 281.169 427.613 281.415 427.432C281.671 427.251 281.799 427.027 281.799 426.76C281.799 426.525 281.719 426.344 281.559 426.216C281.399 426.077 281.191 425.96 280.935 425.864C280.679 425.768 280.396 425.683 280.087 425.608C279.788 425.533 279.484 425.443 279.175 425.336C278.865 425.219 278.577 425.075 278.311 424.904C278.055 424.733 277.847 424.515 277.687 424.248C277.527 423.981 277.447 423.651 277.447 423.256C277.447 422.563 277.713 422.008 278.247 421.592C278.78 421.176 279.479 420.968 280.343 420.968C280.961 420.968 281.527 421.091 282.039 421.336C282.551 421.581 282.951 421.949 283.239 422.44L282.135 423.288C281.921 422.968 281.655 422.728 281.335 422.568C281.015 422.408 280.668 422.328 280.295 422.328C279.953 422.328 279.665 422.397 279.431 422.536C279.207 422.675 279.095 422.856 279.095 423.08C279.095 423.251 279.148 423.389 279.255 423.496C279.361 423.603 279.527 423.699 279.751 423.784C279.975 423.869 280.257 423.955 280.599 424.04C280.919 424.115 281.249 424.205 281.591 424.312C281.932 424.419 282.247 424.563 282.535 424.744C282.833 424.915 283.073 425.149 283.255 425.448C283.447 425.736 283.543 426.109 283.543 426.568C283.543 427.08 283.409 427.533 283.143 427.928C282.887 428.312 282.519 428.611 282.039 428.824C281.569 429.037 281.02 429.144 280.391 429.144ZM288.21 429.144C287.549 429.144 286.973 429.037 286.482 428.824C286.002 428.611 285.607 428.312 285.298 427.928C284.989 427.544 284.759 427.112 284.61 426.632C284.461 426.141 284.386 425.635 284.386 425.112C284.386 424.589 284.455 424.083 284.594 423.592C284.743 423.091 284.967 422.643 285.266 422.248C285.565 421.853 285.949 421.544 286.418 421.32C286.887 421.085 287.442 420.968 288.082 420.968C288.69 420.968 289.218 421.075 289.666 421.288C290.125 421.491 290.503 421.779 290.802 422.152C291.101 422.515 291.319 422.931 291.458 423.4C291.607 423.869 291.682 424.371 291.682 424.904C291.682 424.979 291.677 425.085 291.666 425.224C291.666 425.363 291.655 425.501 291.634 425.64H286.162C286.205 426.269 286.418 426.749 286.802 427.08C287.186 427.411 287.677 427.576 288.274 427.576C288.711 427.576 289.111 427.507 289.474 427.368C289.837 427.229 290.167 427.011 290.466 426.712L291.442 427.896C291.111 428.195 290.781 428.435 290.45 428.616C290.119 428.797 289.773 428.931 289.41 429.016C289.058 429.101 288.658 429.144 288.21 429.144ZM289.938 424.744C289.959 424.659 289.97 424.573 289.97 424.488C289.981 424.403 289.986 424.317 289.986 424.232C289.986 423.997 289.943 423.773 289.858 423.56C289.783 423.347 289.666 423.16 289.506 423C289.346 422.829 289.149 422.696 288.914 422.6C288.679 422.493 288.413 422.44 288.114 422.44C287.698 422.44 287.346 422.531 287.058 422.712C286.781 422.893 286.562 423.128 286.402 423.416C286.253 423.693 286.162 423.997 286.13 424.328H290.514L289.938 424.744Z" fill="#021D1F"/>
<path d="M52.4976 232L56.9136 220.848H58.3216L62.7216 232H60.7056L57.6176 223.552L54.5296 232H52.4976ZM55.2496 229.664L55.8256 228.016H59.3936L60.0016 229.664H55.2496ZM66.8208 232.144C66.2021 232.144 65.6528 232.037 65.1728 231.824C64.7035 231.6 64.3088 231.296 63.9888 230.912C63.6795 230.517 63.4448 230.075 63.2848 229.584C63.1248 229.093 63.0448 228.581 63.0448 228.048C63.0448 227.515 63.1248 227.003 63.2848 226.512C63.4448 226.021 63.6795 225.584 63.9888 225.2C64.3088 224.816 64.7035 224.517 65.1728 224.304C65.6528 224.08 66.2021 223.968 66.8208 223.968C67.5995 223.968 68.2768 224.155 68.8528 224.528C69.4395 224.901 69.8715 225.477 70.1488 226.256L68.5808 226.864C68.4528 226.459 68.2448 226.133 67.9568 225.888C67.6688 225.632 67.2901 225.504 66.8208 225.504C66.3515 225.504 65.9675 225.627 65.6688 225.872C65.3808 226.117 65.1675 226.432 65.0288 226.816C64.8901 227.2 64.8208 227.611 64.8208 228.048C64.8208 228.485 64.8901 228.901 65.0288 229.296C65.1675 229.68 65.3808 229.995 65.6688 230.24C65.9675 230.475 66.3515 230.592 66.8208 230.592C67.2901 230.592 67.6688 230.469 67.9568 230.224C68.2448 229.979 68.4528 229.653 68.5808 229.248L70.1488 229.856C69.8715 230.624 69.4395 231.2 68.8528 231.584C68.2768 231.957 67.5995 232.144 66.8208 232.144ZM74.1406 232.144C73.7459 232.144 73.3726 232.069 73.0206 231.92C72.6792 231.76 72.4072 231.509 72.2046 231.168C72.0019 230.816 71.9006 230.357 71.9006 229.792V222.192L73.6926 221.2V229.296C73.6926 229.744 73.7566 230.091 73.8846 230.336C74.0232 230.571 74.2686 230.688 74.6206 230.688C74.7272 230.688 74.8499 230.677 74.9886 230.656C75.1379 230.624 75.2926 230.587 75.4526 230.544V231.92C75.2392 231.995 75.0206 232.048 74.7966 232.08C74.5832 232.123 74.3646 232.144 74.1406 232.144ZM70.3966 225.488V224.112H75.4526V225.488H70.3966ZM43.4121 249.144C43.0175 249.144 42.6441 249.069 42.2921 248.92C41.9508 248.76 41.6788 248.509 41.4761 248.168C41.2735 247.816 41.1721 247.357 41.1721 246.792V239.192L42.9641 238.2V246.296C42.9641 246.744 43.0281 247.091 43.1561 247.336C43.2948 247.571 43.5401 247.688 43.8921 247.688C43.9988 247.688 44.1215 247.677 44.2601 247.656C44.4095 247.624 44.5641 247.587 44.7241 247.544V248.92C44.5108 248.995 44.2921 249.048 44.0681 249.08C43.8548 249.123 43.6361 249.144 43.4121 249.144ZM39.6681 242.488V241.112H44.7241V242.488H39.6681ZM49.2295 249.144C48.4828 249.144 47.8108 248.968 47.2135 248.616C46.6162 248.264 46.1468 247.779 45.8055 247.16C45.4748 246.541 45.3095 245.837 45.3095 245.048C45.3095 244.259 45.4748 243.555 45.8055 242.936C46.1468 242.317 46.6108 241.837 47.1975 241.496C47.7948 241.144 48.4722 240.968 49.2295 240.968C49.9975 240.968 50.6695 241.144 51.2455 241.496C51.8322 241.837 52.2962 242.317 52.6375 242.936C52.9788 243.555 53.1495 244.259 53.1495 245.048C53.1495 245.837 52.9788 246.541 52.6375 247.16C52.3068 247.779 51.8428 248.264 51.2455 248.616C50.6588 248.968 49.9868 249.144 49.2295 249.144ZM49.2455 247.576C49.6828 247.576 50.0615 247.475 50.3815 247.272C50.7015 247.069 50.9468 246.776 51.1175 246.392C51.2882 246.008 51.3735 245.56 51.3735 245.048C51.3735 244.525 51.2882 244.077 51.1175 243.704C50.9468 243.32 50.7015 243.027 50.3815 242.824C50.0615 242.621 49.6828 242.52 49.2455 242.52C48.7868 242.52 48.3975 242.627 48.0775 242.84C47.7575 243.043 47.5122 243.331 47.3415 243.704C47.1708 244.077 47.0855 244.525 47.0855 245.048C47.0855 245.56 47.1708 246.008 47.3415 246.392C47.5122 246.776 47.7575 247.069 48.0775 247.272C48.3975 247.475 48.7868 247.576 49.2455 247.576ZM59.8052 249.144C59.2932 249.144 58.8666 248.989 58.5252 248.68C58.1839 248.36 58.0132 247.853 58.0132 247.16V237.848H59.7892V246.808C59.7892 247.053 59.8426 247.235 59.9492 247.352C60.0666 247.459 60.2159 247.512 60.3972 247.512C60.4932 247.512 60.5892 247.501 60.6852 247.48C60.7919 247.459 60.8986 247.432 61.0052 247.4V248.904C60.8026 248.989 60.5946 249.048 60.3812 249.08C60.1679 249.123 59.9759 249.144 59.8052 249.144ZM65.4123 249.144C64.7509 249.144 64.1749 249.037 63.6843 248.824C63.2043 248.611 62.8096 248.312 62.5003 247.928C62.1909 247.544 61.9616 247.112 61.8123 246.632C61.6629 246.141 61.5883 245.635 61.5883 245.112C61.5883 244.589 61.6576 244.083 61.7963 243.592C61.9456 243.091 62.1696 242.643 62.4683 242.248C62.7669 241.853 63.1509 241.544 63.6203 241.32C64.0896 241.085 64.6443 240.968 65.2843 240.968C65.8923 240.968 66.4203 241.075 66.8683 241.288C67.3269 241.491 67.7056 241.779 68.0043 242.152C68.3029 242.515 68.5216 242.931 68.6603 243.4C68.8096 243.869 68.8843 244.371 68.8843 244.904C68.8843 244.979 68.8789 245.085 68.8683 245.224C68.8683 245.363 68.8576 245.501 68.8363 245.64H63.3643C63.4069 246.269 63.6203 246.749 64.0043 247.08C64.3883 247.411 64.8789 247.576 65.4763 247.576C65.9136 247.576 66.3136 247.507 66.6763 247.368C67.0389 247.229 67.3696 247.011 67.6683 246.712L68.6443 247.896C68.3136 248.195 67.9829 248.435 67.6523 248.616C67.3216 248.797 66.9749 248.931 66.6123 249.016C66.2603 249.101 65.8603 249.144 65.4123 249.144ZM67.1403 244.744C67.1616 244.659 67.1723 244.573 67.1723 244.488C67.1829 244.403 67.1883 244.317 67.1883 244.232C67.1883 243.997 67.1456 243.773 67.0603 243.56C66.9856 243.347 66.8683 243.16 66.7083 243C66.5483 242.829 66.3509 242.696 66.1163 242.6C65.8816 242.493 65.6149 242.44 65.3163 242.44C64.9003 242.44 64.5483 242.531 64.2603 242.712C63.9829 242.893 63.7643 243.128 63.6043 243.416C63.4549 243.693 63.3643 243.997 63.3323 244.328H67.7163L67.1403 244.744ZM75.2205 249L75.0925 247.672V244.024C75.0925 243.512 74.9378 243.128 74.6285 242.872C74.3192 242.605 73.8872 242.472 73.3325 242.472C72.9058 242.472 72.4845 242.557 72.0685 242.728C71.6632 242.888 71.2898 243.139 70.9485 243.48L69.9565 242.312C70.4685 241.832 71.0125 241.491 71.5885 241.288C72.1645 241.075 72.7938 240.968 73.4765 240.968C74.5432 240.968 75.3698 241.24 75.9565 241.784C76.5538 242.317 76.8525 243.064 76.8525 244.024V249H75.2205ZM72.7725 249.144C72.1858 249.144 71.6632 249.037 71.2045 248.824C70.7565 248.611 70.4045 248.312 70.1485 247.928C69.9032 247.544 69.7805 247.096 69.7805 246.584C69.7805 246.147 69.8712 245.768 70.0525 245.448C70.2445 245.128 70.4898 244.877 70.7885 244.696C71.0445 244.536 71.3432 244.424 71.6845 244.36C72.0258 244.285 72.3832 244.248 72.7565 244.248H75.2365V245.576H73.0125C72.8205 245.576 72.6285 245.597 72.4365 245.64C72.2445 245.672 72.0738 245.736 71.9245 245.832C71.8178 245.917 71.7272 246.024 71.6525 246.152C71.5885 246.28 71.5565 246.429 71.5565 246.6C71.5565 246.941 71.6845 247.213 71.9405 247.416C72.2072 247.608 72.5592 247.704 72.9965 247.704C73.3805 247.704 73.7272 247.619 74.0365 247.448C74.3565 247.277 74.6125 247.043 74.8045 246.744C74.9965 246.445 75.0925 246.109 75.0925 245.736L75.6365 246.616C75.5085 247.171 75.3058 247.64 75.0285 248.024C74.7512 248.397 74.4205 248.68 74.0365 248.872C73.6525 249.053 73.2312 249.144 72.7725 249.144ZM78.3556 249V241.112H80.1476V243.24L79.8116 243.288C79.865 242.829 80.0196 242.429 80.2756 242.088C80.5316 241.736 80.841 241.464 81.2036 241.272C81.577 241.069 81.945 240.968 82.3076 240.968C82.5636 240.968 82.809 241 83.0436 241.064C83.2783 241.128 83.5236 241.235 83.7796 241.384L82.9156 242.984C82.7983 242.909 82.6436 242.851 82.4516 242.808C82.2703 242.755 82.0943 242.728 81.9236 242.728C81.6996 242.728 81.4756 242.771 81.2516 242.856C81.0383 242.941 80.8463 243.075 80.6756 243.256C80.505 243.427 80.377 243.651 80.2916 243.928C80.2383 244.077 80.1956 244.275 80.1636 244.52C80.1423 244.755 80.1316 245.085 80.1316 245.512V249H78.3556ZM84.5944 249V241.112H86.3704V242.856L86.0504 242.936C86.189 242.477 86.3917 242.104 86.6584 241.816C86.925 241.528 87.2344 241.315 87.5864 241.176C87.949 241.037 88.3277 240.968 88.7224 240.968C89.6077 240.968 90.2957 241.224 90.7864 241.736C91.2877 242.237 91.5384 242.957 91.5384 243.896V249H89.7624V244.552C89.7624 243.848 89.6344 243.331 89.3784 243C89.1224 242.669 88.7277 242.504 88.1944 242.504C87.7997 242.504 87.4637 242.6 87.1864 242.792C86.9197 242.973 86.717 243.261 86.5784 243.656C86.4397 244.051 86.3704 244.552 86.3704 245.16V249H84.5944Z" fill="#021D1F"/>
<path d="M186.914 103V76.36L188.498 79.048H178.274V74.776H183.65C184.738 74.776 185.554 74.552 186.098 74.104C186.642 73.656 186.914 72.856 186.914 71.704V69.544H192.242V103H186.914Z" fill="white" fill-opacity="0.6"/>
<path d="M347.77 390.432C345.306 390.432 343.146 389.984 341.29 389.088C339.434 388.16 337.994 386.88 336.97 385.248C335.946 383.616 335.434 381.712 335.434 379.536L340.762 379.2C340.762 381.056 341.418 382.544 342.73 383.664C344.042 384.752 345.77 385.296 347.914 385.296C349.354 385.296 350.57 385.088 351.562 384.672C352.586 384.224 353.354 383.584 353.866 382.752C354.41 381.92 354.682 380.944 354.682 379.824C354.682 378.832 354.474 378 354.058 377.328C353.642 376.656 353.05 376.128 352.282 375.744C351.546 375.328 350.634 375.04 349.546 374.88C348.49 374.688 347.306 374.592 345.994 374.592V370.368C346.922 370.368 347.802 370.288 348.634 370.128C349.466 369.968 350.186 369.712 350.794 369.36C351.434 368.976 351.93 368.496 352.282 367.92C352.634 367.312 352.81 366.56 352.81 365.664C352.81 364.768 352.586 363.984 352.138 363.312C351.722 362.64 351.13 362.128 350.362 361.776C349.626 361.392 348.746 361.2 347.722 361.2C345.994 361.2 344.65 361.664 343.69 362.592C342.73 363.52 342.234 364.736 342.202 366.24L336.97 365.904C336.97 363.984 337.434 362.288 338.362 360.816C339.29 359.344 340.57 358.192 342.202 357.36C343.866 356.528 345.754 356.112 347.866 356.112C349.882 356.112 351.658 356.496 353.194 357.264C354.73 358.032 355.93 359.088 356.794 360.432C357.69 361.776 358.138 363.344 358.138 365.136C358.138 365.968 358.026 366.736 357.802 367.44C357.578 368.144 357.242 368.784 356.794 369.36C356.378 369.904 355.882 370.384 355.306 370.8C354.73 371.216 354.106 371.568 353.434 371.856C354.362 372.144 355.226 372.512 356.026 372.96C356.826 373.408 357.514 373.968 358.09 374.64C358.698 375.312 359.162 376.08 359.482 376.944C359.834 377.808 360.01 378.784 360.01 379.872C360.01 381.952 359.498 383.792 358.474 385.392C357.45 386.96 356.01 388.192 354.154 389.088C352.33 389.984 350.202 390.432 347.77 390.432Z" fill="white" fill-opacity="0.6"/>
<path d="M137.266 320V312.08H122.098V307.952L137.842 286.544H142.594V307.136H147.922V312.08H142.594V320H137.266ZM126.322 309.008L126.13 307.136H137.266V291.968L137.938 292.64L126.322 309.008Z" fill="white" fill-opacity="0.6"/>
<path d="M394.634 163V158.872C395.69 158.072 396.922 157.16 398.33 156.136C399.738 155.112 401.162 153.992 402.602 152.776C404.074 151.56 405.434 150.264 406.682 148.888C407.93 147.48 408.938 146.024 409.706 144.52C410.506 143.016 410.906 141.464 410.906 139.864C410.906 138.264 410.474 136.952 409.61 135.928C408.746 134.872 407.418 134.344 405.626 134.344C404.25 134.344 403.13 134.68 402.266 135.352C401.402 136.024 400.762 136.92 400.346 138.04C399.93 139.128 399.706 140.312 399.674 141.592L394.442 141.16C394.442 139.624 394.682 138.152 395.162 136.744C395.674 135.304 396.41 134.024 397.37 132.904C398.33 131.752 399.514 130.856 400.922 130.216C402.33 129.544 403.946 129.208 405.77 129.208C407.818 129.208 409.61 129.64 411.146 130.504C412.714 131.368 413.93 132.584 414.794 134.152C415.69 135.72 416.138 137.56 416.138 139.672C416.138 141.4 415.834 143.064 415.226 144.664C414.65 146.264 413.818 147.8 412.73 149.272C411.674 150.712 410.426 152.088 408.986 153.4C407.546 154.68 405.978 155.896 404.282 157.048C402.586 158.168 400.794 159.192 398.906 160.12L400.298 158.056H417.482V163H394.634Z" fill="white" fill-opacity="0.6"/>
</svg>
