<svg width="270" height="47" viewBox="0 0 270 47" fill="none" xmlns="http://www.w3.org/2000/svg">
<path d="M220.586 40.125V36.2812L224.265 35.5781V10.5703L220.586 9.86719V6H246.812V15H241.89L241.539 10.8984H230.64V20.0156H242.406V24.9609H230.64V35.25H242.148L242.5 31.0547H247.375V40.125H220.586Z" fill="#B7874A" style="fill:#B7874A;fill:color(display-p3 0.7176 0.5294 0.2902);fill-opacity:1;"/>
<path d="M189.054 40.125V36.2812L192.733 35.5781V10.5703L189.054 9.86719V6H192.733H199.108H203.163V9.86719L199.108 10.5703V35.25H209.257L209.632 30.1641H214.507V40.125H189.054Z" fill="#B7874A" style="fill:#B7874A;fill:color(display-p3 0.7176 0.5294 0.2902);fill-opacity:1;"/>
<path d="M154.288 40.125V36.2812L157.967 35.5781V10.5703L154.288 9.86719V6H157.967H169.358C173.28 6 176.342 6.78125 178.545 8.34375C180.749 9.89062 181.85 12.2188 181.85 15.3281C181.85 16.8906 181.413 18.2891 180.538 19.5234C179.678 20.7578 178.459 21.6797 176.881 22.2891C178.241 22.5859 179.381 23.1172 180.303 23.8828C181.225 24.6484 181.92 25.5781 182.389 26.6719C182.874 27.7656 183.116 28.9609 183.116 30.2578C183.116 33.4922 182.045 35.9453 179.905 37.6172C177.78 39.2891 174.795 40.125 170.952 40.125H154.288ZM164.342 35.2266H170.952C172.827 35.2266 174.256 34.8047 175.241 33.9609C176.241 33.1172 176.741 31.8828 176.741 30.2578C176.741 29.1016 176.553 28.125 176.178 27.3281C175.819 26.5156 175.249 25.8984 174.467 25.4766C173.702 25.0547 172.717 24.8438 171.514 24.8438H164.342V35.2266ZM164.342 20.3438H169.803C171.6 20.3438 172.991 19.9453 173.975 19.1484C174.975 18.3516 175.475 17.2109 175.475 15.7266C175.475 14.0859 174.959 12.875 173.928 12.0938C172.897 11.3125 171.374 10.9219 169.358 10.9219H164.342V20.3438Z" fill="#B7874A" style="fill:#B7874A;fill:color(display-p3 0.7176 0.5294 0.2902);fill-opacity:1;"/>
<path d="M102.518 40.125V36.2812L106.174 35.5781V10.5703L102.518 9.86719V6H106.174H115.479L125.135 30.2344H125.276L134.627 6H147.658V9.86719L143.979 10.5703V35.5781L147.658 36.2812V40.125H133.924V36.2812L137.791 35.5781V28.3359L137.885 13.1719L137.768 13.1484L127.362 39.4922H122.651L111.987 13.3125L111.846 13.3359L112.221 27.7734V35.5781L116.252 36.2812V40.125H102.518Z" fill="#B7874A" style="fill:#B7874A;fill:color(display-p3 0.7176 0.5294 0.2902);fill-opacity:1;"/>
<path d="M79.4702 40.6172C76.8296 40.6172 74.5015 40.1562 72.4858 39.2344C70.4858 38.2969 68.9233 36.9453 67.7983 35.1797C66.6733 33.3984 66.1108 31.25 66.1108 28.7344V10.5703L62.4546 9.86719V6H76.1655V9.86719L72.4858 10.5703V28.7344C72.4858 30.2812 72.7671 31.5703 73.3296 32.6016C73.9077 33.6328 74.7202 34.4062 75.7671 34.9219C76.814 35.4375 78.0483 35.6953 79.4702 35.6953C80.9233 35.6953 82.1812 35.4453 83.2437 34.9453C84.3062 34.4297 85.1187 33.6562 85.6812 32.625C86.2593 31.5938 86.5483 30.2969 86.5483 28.7344V10.5703L82.8687 9.86719V6H96.603V9.86719L92.9233 10.5703V28.7344C92.9233 31.2656 92.3608 33.4219 91.2358 35.2031C90.1108 36.9688 88.5405 38.3125 86.5249 39.2344C84.5093 40.1562 82.1577 40.6172 79.4702 40.6172Z" fill="#B7874A" style="fill:#B7874A;fill:color(display-p3 0.7176 0.5294 0.2902);fill-opacity:1;"/>
<path d="M23 40.125V36.2812L26.6797 35.5781V10.5703L23 9.86719V6H36.7344V9.86719L33.0547 10.5703V20.8359H47.4688V10.5703L43.7891 9.86719V6H47.4688H53.8438H57.5234V9.86719L53.8438 10.5703V35.5781L57.5234 36.2812V40.125H43.7891V36.2812L47.4688 35.5781V25.7578H33.0547V35.5781L36.7344 36.2812V40.125H23Z" fill="#B7874A" style="fill:#B7874A;fill:color(display-p3 0.7176 0.5294 0.2902);fill-opacity:1;"/>
</svg>
